<svg width="24" height="24" viewBox="0 0 24 24" fill="none" xmlns="http://www.w3.org/2000/svg">
<g id="Iconly/Bulk/Tick Square">
<g id="Tick Square">
<path id="Fill 1" opacity="0.4" d="M16.34 2H7.67C4.28 2 2 4.38 2 7.92V16.09C2 19.62 4.28 22 7.67 22H16.34C19.73 22 22 19.62 22 16.09V7.92C22 4.38 19.73 2 16.34 2Z" fill="#130F26"/>
<path id="Fill 4" d="M10.813 15.248C10.589 15.248 10.365 15.163 10.194 14.992L7.82095 12.619C7.47895 12.277 7.47895 11.723 7.82095 11.382C8.16295 11.04 8.71595 11.039 9.05795 11.381L10.813 13.136L14.941 9.00796C15.283 8.66596 15.836 8.66596 16.178 9.00796C16.52 9.34996 16.52 9.90396 16.178 10.246L11.432 14.992C11.261 15.163 11.037 15.248 10.813 15.248Z" fill="#130F26"/>
</g>
</g>
</svg>
