<svg width="36" height="36" viewBox="0 0 36 36" fill="none" xmlns="http://www.w3.org/2000/svg">
<rect width="36" height="36" rx="8" fill="#FFCC91" fill-opacity="0.16"/>
<path fill-rule="evenodd" clip-rule="evenodd" d="M15.9927 20.6723C19.0668 20.6723 21.6943 21.1382 21.6943 22.999C21.6943 24.8598 19.0843 25.339 15.9927 25.339C12.9177 25.339 10.291 24.8773 10.291 23.0157C10.291 21.154 12.9002 20.6723 15.9927 20.6723Z" stroke="#1C1D22" stroke-width="1.5" stroke-linecap="round" stroke-linejoin="round"/>
<path fill-rule="evenodd" clip-rule="evenodd" d="M15.9929 18.0165C13.9746 18.0165 12.3379 16.3807 12.3379 14.3623C12.3379 12.344 13.9746 10.7082 15.9929 10.7082C18.0104 10.7082 19.6471 12.344 19.6471 14.3623C19.6546 16.3732 18.0296 18.009 16.0187 18.0165H15.9929Z" stroke="#1C1D22" stroke-width="1.5" stroke-linecap="round" stroke-linejoin="round"/>
<path d="M21.7354 17.068C23.0695 16.8805 24.097 15.7355 24.0995 14.3497C24.0995 12.9838 23.1037 11.8505 21.7979 11.6363" stroke="#1C1D22" stroke-width="1.5" stroke-linecap="round" stroke-linejoin="round"/>
<path d="M23.4961 20.2768C24.7886 20.4693 25.6911 20.9227 25.6911 21.856C25.6911 22.4985 25.2661 22.9152 24.5794 23.176" stroke="#1C1D22" stroke-width="1.5" stroke-linecap="round" stroke-linejoin="round"/>
</svg>
