<svg width="141" height="140" viewBox="0 0 141 140" fill="none" xmlns="http://www.w3.org/2000/svg">
<rect x="1" y="0.5" width="139" height="139" rx="69.5" fill="#F4F5FA"/>
<path fill-rule="evenodd" clip-rule="evenodd" d="M92.7832 80.7868L90.8609 65.3002C89.6899 59.7741 86.3757 57.5 83.2161 57.5H57.8293C54.6255 57.5 51.2009 59.6149 50.2066 65.3002L48.2623 80.7868C46.6714 92.1574 52.5265 95 60.1713 95H80.8962C88.5189 95 94.1972 90.8839 92.7832 80.7868ZM63.2425 70.3714C62.0222 70.3714 61.033 69.3533 61.033 68.0973C61.033 66.8414 62.0222 65.8232 63.2425 65.8232C64.4627 65.8232 65.452 66.8414 65.452 68.0973C65.452 69.3533 64.4627 70.3714 63.2425 70.3714ZM75.5051 68.0973C75.5051 69.3533 76.4943 70.3714 77.7145 70.3714C78.9348 70.3714 79.924 69.3533 79.924 68.0973C79.924 66.8414 78.9348 65.8232 77.7145 65.8232C76.4943 65.8232 75.5051 66.8414 75.5051 68.0973Z" fill="#BEC0CA"/>
<path opacity="0.4" d="M82.9347 56.9358C82.9425 57.1297 82.9053 57.3228 82.8258 57.5H79.233C79.1634 57.3199 79.1266 57.1288 79.1242 56.9358C79.1242 52.1421 75.2247 48.256 70.4144 48.256C65.6041 48.256 61.7046 52.1421 61.7046 56.9358C61.7376 57.1224 61.7376 57.3134 61.7046 57.5H58.0247C57.9918 57.3134 57.9918 57.1224 58.0247 56.9358C58.3043 50.2648 63.8125 45 70.5124 45C77.2122 45 82.7204 50.2648 83 56.9358H82.9347Z" fill="#BEC0CA"/>
<rect x="1" y="0.5" width="139" height="139" rx="69.5" stroke="#E1E2E9"/>
</svg>
