<svg width="36" height="36" viewBox="0 0 36 36" fill="none" xmlns="http://www.w3.org/2000/svg">
<rect width="36" height="36" rx="8" fill="#FFCC91" fill-opacity="0.16"/>
<path fill-rule="evenodd" clip-rule="evenodd" d="M21.7615 25.9167H14.805C12.2496 25.9167 10.2893 24.9937 10.8461 21.279L11.4945 16.2447C11.8377 14.3911 13.0201 13.6817 14.0574 13.6817H22.5395C23.5921 13.6817 24.7058 14.4445 25.1024 16.2447L25.7508 21.279C26.2237 24.5742 24.3168 25.9167 21.7615 25.9167Z" stroke="#130F26" stroke-width="1.5" stroke-linecap="round" stroke-linejoin="round"/>
<path d="M21.876 13.4987C21.876 11.5103 20.2641 9.89835 18.2757 9.89835V9.89835C17.3182 9.89429 16.3985 10.2718 15.72 10.9474C15.0416 11.6231 14.6601 12.5411 14.6602 13.4987V13.4987" stroke="#130F26" stroke-width="1.5" stroke-linecap="round" stroke-linejoin="round"/>
<path d="M20.7471 17.2515H20.709" stroke="#130F26" stroke-width="1.5" stroke-linecap="round" stroke-linejoin="round"/>
<path d="M15.8878 17.2515H15.8496" stroke="#130F26" stroke-width="1.5" stroke-linecap="round" stroke-linejoin="round"/>
</svg>
